<svg width="308" height="308" viewBox="0 0 308 308" fill="none" xmlns="http://www.w3.org/2000/svg">
<circle cx="154" cy="154" r="154" fill="#DB4437"/>
<path d="M239.017 155.035C239.017 204.674 205.059 240 154.91 240C106.829 240 68 201.131 68 153C68 104.869 106.829 66 154.91 66C178.32 66 198.015 74.5948 213.189 88.7673L189.534 111.535C158.59 81.646 101.047 104.098 101.047 153C101.047 183.345 125.263 207.936 154.91 207.936C189.324 207.936 202.22 183.24 204.253 170.435H154.91V140.511H237.65C238.456 144.967 239.017 149.246 239.017 155.035Z" fill="white"/>
</svg>
